<svg width="29" height="32" viewBox="0 0 29 32" fill="none" xmlns="http://www.w3.org/2000/svg">
<path d="M27.667 14.3996C27.667 7.03965 21.694 1.06665 14.334 1.06665C6.974 1.06665 1.001 7.03965 1.001 14.3996V19.8396H1.054C1.054 19.9996 1.054 20.1596 1.054 20.2666C1.054 23.7866 3.881 26.6666 7.401 26.6666V13.8666H7.348C5.108 13.8666 3.188 14.9866 2.068 16.7466V14.3996C2.068 7.62665 7.561 2.13265 14.335 2.13265C21.109 2.13265 26.602 7.62565 26.602 14.3996V16.7466C25.482 15.0396 23.509 13.8666 21.322 13.8666H21.269V26.6666H21.322C21.855 26.6666 22.335 26.6137 22.869 26.4537C21.269 28.0007 19.296 29.0666 17.056 29.6006V27.7337H11.669V30.9337H17.002V30.7206C20.415 30.0276 23.349 28.0536 25.269 25.2806C26.709 24.1076 27.669 22.2936 27.669 20.2676C27.669 20.1076 27.669 19.9476 27.669 19.8406V14.4006L27.667 14.3996ZM6.333 15.0396V25.4926C3.933 25.0126 2.066 22.8256 2.066 20.2656C2.066 17.7056 3.933 15.5196 6.333 15.0396ZM15.933 29.8666H12.733V28.7996H15.933V29.8666ZM22.333 25.4926V15.0396C24.786 15.5196 26.6 17.7066 26.6 20.2666C26.6 22.8266 24.787 25.0126 22.333 25.4926Z" fill="black"/>
<rect x="0.744789" y="30.5468" width="40.0668" height="0.680214" transform="rotate(-47.5137 0.744789 30.5468)" fill="black"/>
<rect x="28.3073" y="31.667" width="40.0668" height="0.680214" transform="rotate(-131.04 28.3073 31.667)" fill="black"/>
</svg>
