<svg width="275" height="253" viewBox="0 0 275 253" fill="none" xmlns="http://www.w3.org/2000/svg">
<g clip-path="url(#clip0_101_101)">
<path d="M186.801 -7.23498e-06C184.003 0.0793678 181.82 2.44078 181.88 5.23874C181.94 8.01687 184.202 10.16 186.96 10.16H187.119C187.774 10.0806 205.613 10.0806 223.949 28.8925C242.403 47.8036 242.84 65.8812 242.84 66.04C242.84 68.838 245.102 71.12 247.92 71.12C250.738 71.12 253 68.838 253 66.04C253 65.147 252.762 43.9737 231.251 21.9075C209.602 -0.277821 187.793 -0.0595387 186.801 -7.23498e-06ZM186.96 30.48C184.182 30.48 181.92 32.7819 181.88 35.56C181.84 38.3381 184.182 40.5805 186.96 40.64C187.297 40.64 195.235 40.9773 203.629 49.3712C212.023 57.7652 212.36 65.7622 212.36 66.04C212.36 68.838 214.622 71.12 217.44 71.12C220.258 71.12 222.52 68.838 222.52 66.04C222.52 65.5439 222.441 53.5781 210.931 42.0687C199.422 30.5594 187.456 30.48 186.96 30.48ZM144.891 30.6387C139.434 30.6189 133.818 32.5239 129.493 36.5125L5.03252 161.449C-3.06373 169.545 -3.12326 182.801 5.03252 191.611L62.0238 248.444C65.933 252.353 71.1321 254.476 76.7875 254.476C82.3636 254.476 87.7413 252.393 92.0275 248.444L216.646 123.666C224.405 114.598 224.405 101.421 216.488 93.5037L159.496 36.5125C155.607 32.6231 150.348 30.6586 144.891 30.6387ZM141.24 76.2C160.885 76.2 176.8 92.1147 176.8 111.76C176.8 131.405 160.885 147.32 141.24 147.32C121.595 147.32 105.68 131.405 105.68 111.76C105.68 92.1147 121.595 76.2 141.24 76.2ZM141.24 101.6C135.624 101.6 131.08 106.144 131.08 111.76C131.08 117.376 135.624 121.92 141.24 121.92C146.856 121.92 151.4 117.376 151.4 111.76C151.4 106.144 146.856 101.6 141.24 101.6ZM75.2 137.16C80.8158 137.16 85.36 141.704 85.36 147.32C85.36 152.936 80.8158 157.48 75.2 157.48C69.5842 157.48 65.04 152.936 65.04 147.32C65.04 141.704 69.5842 137.16 75.2 137.16ZM49.8 162.56C55.4158 162.56 59.96 167.104 59.96 172.72C59.96 178.336 55.4158 182.88 49.8 182.88C44.1842 182.88 39.64 178.336 39.64 172.72C39.64 167.104 44.1842 162.56 49.8 162.56ZM105.68 167.64C111.296 167.64 115.84 172.184 115.84 177.8C115.84 183.416 111.296 187.96 105.68 187.96C100.064 187.96 95.52 183.416 95.52 177.8C95.52 172.184 100.064 167.64 105.68 167.64ZM80.28 193.04C85.8958 193.04 90.44 197.584 90.44 203.2C90.44 208.816 85.8958 213.36 80.28 213.36C74.6642 213.36 70.12 208.816 70.12 203.2C70.12 197.584 74.6642 193.04 80.28 193.04Z" fill="#44B449"/>
<g clip-path="url(#clip1_101_101)">
<path d="M186.801 -7.23498e-06C184.003 0.0793678 181.82 2.44078 181.88 5.23874C181.94 8.01687 184.202 10.16 186.96 10.16H187.119C187.774 10.0806 205.613 10.0806 223.949 28.8925C242.403 47.8036 242.84 65.8812 242.84 66.04C242.84 68.838 245.102 71.12 247.92 71.12C250.738 71.12 253 68.838 253 66.04C253 65.147 252.762 43.9737 231.251 21.9075C209.602 -0.277821 187.793 -0.0595387 186.801 -7.23498e-06ZM186.96 30.48C184.182 30.48 181.92 32.7819 181.88 35.56C181.84 38.3381 184.182 40.5805 186.96 40.64C187.297 40.64 195.235 40.9773 203.629 49.3712C212.023 57.7652 212.36 65.7622 212.36 66.04C212.36 68.838 214.622 71.12 217.44 71.12C220.258 71.12 222.52 68.838 222.52 66.04C222.52 65.5439 222.441 53.5781 210.931 42.0687C199.422 30.5594 187.456 30.48 186.96 30.48ZM144.891 30.6387C139.434 30.6189 133.818 32.5239 129.493 36.5125L5.03252 161.449C-3.06373 169.545 -3.12326 182.801 5.03252 191.611L62.0238 248.444C65.933 252.353 71.1321 254.476 76.7875 254.476C82.3636 254.476 87.7413 252.393 92.0275 248.444L216.646 123.666C224.405 114.598 224.405 101.421 216.488 93.5037L159.496 36.5125C155.607 32.6231 150.348 30.6586 144.891 30.6387ZM141.24 76.2C160.885 76.2 176.8 92.1147 176.8 111.76C176.8 131.405 160.885 147.32 141.24 147.32C121.595 147.32 105.68 131.405 105.68 111.76C105.68 92.1147 121.595 76.2 141.24 76.2ZM141.24 101.6C135.624 101.6 131.08 106.144 131.08 111.76C131.08 117.376 135.624 121.92 141.24 121.92C146.856 121.92 151.4 117.376 151.4 111.76C151.4 106.144 146.856 101.6 141.24 101.6ZM75.2 137.16C80.8158 137.16 85.36 141.704 85.36 147.32C85.36 152.936 80.8158 157.48 75.2 157.48C69.5842 157.48 65.04 152.936 65.04 147.32C65.04 141.704 69.5842 137.16 75.2 137.16ZM49.8 162.56C55.4158 162.56 59.96 167.104 59.96 172.72C59.96 178.336 55.4158 182.88 49.8 182.88C44.1842 182.88 39.64 178.336 39.64 172.72C39.64 167.104 44.1842 162.56 49.8 162.56ZM105.68 167.64C111.296 167.64 115.84 172.184 115.84 177.8C115.84 183.416 111.296 187.96 105.68 187.96C100.064 187.96 95.52 183.416 95.52 177.8C95.52 172.184 100.064 167.64 105.68 167.64ZM80.28 193.04C85.8958 193.04 90.44 197.584 90.44 203.2C90.44 208.816 85.8958 213.36 80.28 213.36C74.6642 213.36 70.12 208.816 70.12 203.2C70.12 197.584 74.6642 193.04 80.28 193.04Z" fill="#F8A21A"/>
</g>
<g clip-path="url(#clip2_101_101)">
<path d="M186.863 0.00756112C184.065 0.0869361 181.882 2.44834 181.942 5.24631C182.002 8.02444 184.264 10.1676 187.022 10.1676H187.181C187.836 10.0882 205.675 10.0882 224.011 28.9001C242.465 47.8112 242.902 65.8888 242.902 66.0476C242.902 68.8455 245.164 71.1276 247.982 71.1276C250.8 71.1276 253.062 68.8455 253.062 66.0476C253.062 65.1546 252.824 43.9813 231.313 21.9151C209.664 -0.270252 187.855 -0.0519704 186.863 0.00756112ZM187.022 30.4876C184.244 30.4876 181.982 32.7894 181.942 35.5676C181.902 38.3457 184.244 40.588 187.022 40.6476C187.359 40.6476 195.297 40.9849 203.691 49.3788C212.085 57.7727 212.422 65.7698 212.422 66.0476C212.422 68.8455 214.684 71.1276 217.502 71.1276C220.32 71.1276 222.582 68.8455 222.582 66.0476C222.582 65.5515 222.503 53.5857 210.993 42.0763C199.484 30.5669 187.518 30.4876 187.022 30.4876ZM144.953 30.6463C139.496 30.6265 133.88 32.5315 129.555 36.5201L5.09453 161.456C-3.00172 169.553 -3.06125 182.808 5.09453 191.619L62.0858 248.451C65.995 252.361 71.1941 254.484 76.8495 254.484C82.4256 254.484 87.8033 252.4 92.0895 248.451L216.708 123.674C224.467 114.605 224.467 101.429 216.55 93.5113L159.558 36.5201C155.669 32.6307 150.41 30.6662 144.953 30.6463ZM141.302 76.2076C160.947 76.2076 176.862 92.1222 176.862 111.768C176.862 131.413 160.947 147.328 141.302 147.328C121.657 147.328 105.742 131.413 105.742 111.768C105.742 92.1222 121.657 76.2076 141.302 76.2076ZM141.302 101.608C135.686 101.608 131.142 106.152 131.142 111.768C131.142 117.383 135.686 121.928 141.302 121.928C146.918 121.928 151.462 117.383 151.462 111.768C151.462 106.152 146.918 101.608 141.302 101.608ZM75.262 137.168C80.8778 137.168 85.422 141.712 85.422 147.328C85.422 152.943 80.8778 157.488 75.262 157.488C69.6462 157.488 65.102 152.943 65.102 147.328C65.102 141.712 69.6462 137.168 75.262 137.168ZM49.862 162.568C55.4778 162.568 60.022 167.112 60.022 172.728C60.022 178.343 55.4778 182.888 49.862 182.888C44.2462 182.888 39.702 178.343 39.702 172.728C39.702 167.112 44.2462 162.568 49.862 162.568ZM105.742 167.648C111.358 167.648 115.902 172.192 115.902 177.808C115.902 183.423 111.358 187.968 105.742 187.968C100.126 187.968 95.582 183.423 95.582 177.808C95.582 172.192 100.126 167.648 105.742 167.648ZM80.342 193.048C85.9578 193.048 90.502 197.592 90.502 203.208C90.502 208.823 85.9578 213.368 80.342 213.368C74.7263 213.368 70.182 208.823 70.182 203.208C70.182 197.592 74.7263 193.048 80.342 193.048Z" fill="#F8A21A"/>
</g>
</g>
<path d="M0 0H74V74.5499C71.6065 75.0536 7.67925 75.1543 0 74.7513V0Z" fill="#3078BB"/>
<path d="M0 164V90H73.5843C73.9821 92.3935 74.1809 157.318 73.7832 164H0Z" fill="#3078BB"/>
<path d="M74 179V253H0.486402C-0.0103115 250.606 -0.208994 189.272 0.28772 179H74Z" fill="#F8A21A"/>
<defs>
<clipPath id="clip0_101_101">
<rect width="201" height="253" fill="white" transform="translate(74)"/>
</clipPath>
<clipPath id="clip1_101_101">
<rect width="93.9457" height="21.8796" fill="white" transform="translate(179.552 8) rotate(45.3012)"/>
</clipPath>
<clipPath id="clip2_101_101">
<rect width="142.264" height="30.1168" fill="white" transform="translate(189.347 -25.4097) rotate(45.3012)"/>
</clipPath>
</defs>
</svg>
