<svg width="750" height="750" viewBox="0 0 750 750" fill="none" xmlns="http://www.w3.org/2000/svg">
<path fill-rule="evenodd" clip-rule="evenodd" d="M332.235 10.903C326.428 11.6049 315.9 14.2848 309.903 16.5818C277.744 29.024 253.498 57.8007 246.415 92.1285C246.386 92.2692 246.357 92.4169 246.329 92.5751H344.167V125.595H245.437C245.382 133.916 245.336 144.399 245.295 157.658H344.167V190.677H245.211C245.191 200.353 245.171 211.007 245.15 222.74H344.167V256.238H245.093L245.075 267.086L245.063 278.278L245.053 288.301H344.167V321.8H245.019C245.009 333.561 245.002 344.211 245 353.862H344.167V387.361H245.022C245.048 400.465 245.099 410.764 245.184 418.945H344.167V452.443H246.831C246.955 453.072 247.086 453.668 247.226 454.262C247.395 454.983 247.577 455.702 247.772 456.472L247.883 456.91C257.645 495.576 290.888 526.012 329.81 531.882C338.679 533.286 412.567 533.286 421.564 531.882C455.509 526.778 485.689 502.723 499.28 469.926C501.124 465.345 504.189 455.328 504.595 452.443H407.335V418.945H407.654V418.626H457.104H506.554V402.355V387.361H407.813V386.085H407.654V369.814V353.543L456.976 353.416L506.235 353.224V336.954V321.8H407.813V320.364L407.654 320.364V304.093V287.823H457.104H506.554V271.552V256.238H407.813V255.281H407.654V239.011V222.74L407.813 222.74L506.554 222.74V206.47V190.677H407.813V190.199H407.654V173.609V157.02H457.104H506.554V140.749V125.595H407.813V124.478H407.654V108.208V91.9371H456.147H504.703L504.257 89.5125C503.491 84.9822 498.897 72.0295 496.09 66.4784C483.775 42.1681 462.145 23.2176 437.196 15.0504L436.699 14.8893C433.582 13.8791 431.218 13.1129 428.81 12.5294C421.253 10.6979 413.259 10.6648 380.178 10.5279L378.303 10.5202C355.333 10.4564 334.596 10.6478 332.235 10.903Z" fill="white"/>
<path d="M156.229 437.887C156.457 489.386 156.343 487.487 160.115 502.001C166.058 524.789 178.916 546.13 198.517 565.662C204.289 571.45 220.233 584.109 227.833 588.947C259.95 609.339 298.238 621.004 337.555 622.406L346.07 622.722V663.189V703.656L283.951 703.791L221.776 703.882V726.941V750H375.5H529.224V726.941V703.882L467.106 703.791L404.93 703.656V663.189V622.722L413.445 622.406C452.762 621.004 491.05 609.339 523.167 588.947C530.767 584.109 546.711 571.45 552.483 565.662C572.084 546.13 584.942 524.789 590.885 502.001C594.657 487.487 594.543 489.386 594.771 437.887L595 391H565.855H536.71L536.482 435.852C536.31 479.258 536.253 480.976 535.053 486.899C532.71 498.564 528.424 508.783 521.567 519.227C515.109 529.039 508.594 536.092 498.365 544.457C477.964 561.095 452.934 571.359 423.217 575.338C417.503 576.061 413.16 576.152 375.5 576.152C329.84 576.152 329.897 576.152 314.81 573.168C278.751 565.979 247.034 545.904 229.433 519.227C222.576 508.783 218.29 498.564 215.947 486.899C214.747 480.976 214.69 479.258 214.518 435.852L214.29 391H185.145H156L156.229 437.887Z" fill="white"/>
</svg>
