<?xml version="1.0" encoding="utf-8"?><svg version="1.1" id="Layer_1" xmlns="http://www.w3.org/2000/svg" xmlns:xlink="http://www.w3.org/1999/xlink" x="0px" y="0px" viewBox="0 0 122.88 67.31" style="enable-background:new 0 0 122.88 67.31" xml:space="preserve"><style type="text/css"><![CDATA[
	.st0{fill-rule:evenodd;clip-rule:evenodd;fill:#262626;}
	.st1{fill-rule:evenodd;clip-rule:evenodd;fill:#C84436;}
]]></style><g><path class="st0" d="M92.71,16.53l-7.92-0.05V5.77c0-1.59-0.65-3.03-1.7-4.08C82.04,0.65,80.6,0,79.01,0H26.35 c-1.59,0-3.03,0.65-4.08,1.7c-1.04,1.04-1.7,2.49-1.7,4.08c0,0.87,0.7,1.56,1.56,1.56c0.87,0,1.57-0.7,1.57-1.56 c0-0.73,0.3-1.39,0.78-1.87c0.48-0.48,1.14-0.78,1.87-0.78h52.66c0.72,0,1.39,0.3,1.87,0.78c0.48,0.48,0.78,1.14,0.78,1.87v49 h-8.83c-0.87,0-1.57,0.7-1.57,1.57s0.7,1.57,1.57,1.57h10.39c0.87,0,1.57-0.7,1.57-1.57v-1.78h6.32c0.72-16.29,24.11-18.54,26.49,0 h5.14c1.32-15.88-6.52-22.06-18.45-23.45c-0.86-3.73-2.49-7.19-4.34-10.61C97.74,16.44,97.23,16.6,92.71,16.53L92.71,16.53z M29.55,30.91h1.93c1.25,0,2.08,0.06,2.51,0.17c0.43,0.11,0.74,0.3,0.94,0.56c0.2,0.26,0.31,0.55,0.32,0.87 c0.02,0.32-0.03,0.95-0.14,1.89L34.7,37.9c-0.11,0.89-0.22,1.49-0.34,1.79c-0.12,0.3-0.29,0.54-0.52,0.71 c-0.23,0.17-0.5,0.29-0.82,0.36c-0.31,0.07-0.78,0.1-1.4,0.1h-3.26L29.55,30.91L29.55,30.91z M31.16,39.13l0,0.02 c0.18,0,0.34-0.02,0.45-0.06c0.36-0.04,0.68-0.09,0.73-0.17c0.1-0.15,0.19-0.56,0.27-1.22l0.46-3.87c0.05-0.45,0.07-0.74,0.06-0.87 c-0.01-0.13-0.07-0.22-0.16-0.28c-0.06-0.04-0.48-0.06-0.88-0.08h0l-0.01,0l-0.01,0l-0.01,0h0l-0.01,0h-0.01l0,0h-0.01 c-0.24-0.01-0.47-0.01-0.57-0.01l-0.78,6.56C30.78,39.15,30.96,39.15,31.16,39.13L31.16,39.13z M36.96,30.91h4.31l-0.24,1.98h-1.72 l-0.23,1.9h1.61l-0.23,1.88h-1.61l-0.26,2.19h1.9l-0.24,1.98h-4.48L36.96,30.91L36.96,30.91z M45.22,30.91l-0.95,7.95h1.56 l-0.24,1.98h-4.15l1.19-9.94H45.22L45.22,30.91z M50.46,30.91l-1.19,9.94h-2.59l1.19-9.94H50.46L50.46,30.91z M58.09,30.91 l-2.5,9.94h-3.91l-0.31-9.94h2.73c-0.02,2.74-0.07,5.06-0.16,6.95c0.37-1.92,0.71-3.62,1.04-5.1l0.39-1.85H58.09L58.09,30.91z M58.99,30.91h4.31l-0.24,1.98h-1.72l-0.23,1.9h1.61l-0.22,1.88h-1.61l-0.26,2.19h1.9l-0.24,1.98H57.8L58.99,30.91L58.99,30.91z M64.67,30.91h1.83c1.22,0,2.04,0.05,2.46,0.14s0.74,0.33,0.97,0.72c0.23,0.39,0.29,1,0.19,1.85c-0.09,0.77-0.25,1.29-0.48,1.56 c-0.22,0.27-0.62,0.42-1.19,0.48c0.5,0.13,0.82,0.3,0.97,0.51c0.15,0.21,0.24,0.41,0.26,0.59c0.02,0.18-0.02,0.67-0.11,1.47 l-0.31,2.62h-2.4l0.4-3.31c0.06-0.53,0.06-0.86-0.01-0.99c-0.07-0.13-0.28-0.19-0.63-0.19l-0.54,4.48h-2.59L64.67,30.91 L64.67,30.91z M66.79,34.8l0,0.01c0.15,0,0.28-0.01,0.38-0.03c0.31-0.02,0.62-0.05,0.68-0.1c0.24-0.16,0.46-1.71,0.23-1.94 c-0.06-0.07-0.48-0.11-0.84-0.13c-0.04,0-0.09-0.01-0.13-0.01h0h0c-0.12-0.01-0.23-0.01-0.3-0.01l-0.26,2.21 C66.61,34.81,66.69,34.81,66.79,34.8L66.79,34.8z M77.4,30.91l-2.64,6.34l-0.43,3.6h-2.39l0.43-3.6l-1.06-6.34h2.37 c0.13,1.94,0.19,3.25,0.16,3.92c0.28-1.06,0.67-2.37,1.19-3.92H77.4L77.4,30.91z M6.46,24.73c-0.97,0-1.76-0.7-1.76-1.56 s0.79-1.57,1.76-1.57h17.08c0.97,0,1.76,0.7,1.76,1.57c0,0.87-0.79,1.56-1.76,1.56H6.46L6.46,24.73z M1.62,33.2 c-2.16,0-2.16-3.15,0-3.15h19.57c1.3,0,2.34,0.71,2.34,1.57c0,0.87-1.05,1.57-2.34,1.57H1.62L1.62,33.2z M40.59,54.77 c0.87,0,1.57,0.7,1.57,1.56c0,0.87-0.7,1.57-1.57,1.57H26.35c-1.58,0-3.02-0.69-4.08-1.78c-1.04-1.09-1.7-2.57-1.7-4.15v-11.5 c0-0.87,0.7-1.57,1.56-1.57c0.87,0,1.57,0.7,1.57,1.57v11.5c0,0.75,0.31,1.47,0.81,1.99c0.48,0.5,1.12,0.81,1.82,0.81L40.59,54.77 L40.59,54.77L40.59,54.77z M56.5,46.1c-5.85,0-10.6,4.75-10.6,10.6s4.75,10.6,10.6,10.6s10.6-4.75,10.6-10.6 C67.1,50.85,62.36,46.1,56.5,46.1L56.5,46.1L56.5,46.1z M56.5,52.63c-2.25,0-4.08,1.82-4.08,4.08c0,2.25,1.82,4.08,4.08,4.08 c2.25,0,4.08-1.82,4.08-4.08C60.57,54.45,58.75,52.63,56.5,52.63L56.5,52.63L56.5,52.63z M104.32,44.54 c-5.85,0-10.6,4.75-10.6,10.6c0,5.85,4.75,10.6,10.6,10.6c5.85,0,10.6-4.75,10.6-10.6C114.92,49.29,110.18,44.54,104.32,44.54 L104.32,44.54L104.32,44.54z M100.25,55.15c0,2.25,1.82,4.08,4.08,4.08c2.25,0,4.08-1.82,4.08-4.08s-1.82-4.08-4.08-4.08 C102.07,51.07,100.25,52.9,100.25,55.15L100.25,55.15z M93.47,21.06l-4.78-0.09v10.16h10.12C97.56,27.5,95.72,24.18,93.47,21.06 L93.47,21.06L93.47,21.06z"/><path class="st1" d="M11.03,16.25c-0.97,0-1.76-0.7-1.76-1.56c0-0.87,0.79-1.57,1.76-1.57h14.83c0.97,0,1.76,0.7,1.76,1.57 c0,0.87-0.79,1.56-1.76,1.56H11.03L11.03,16.25L11.03,16.25z M33.62,9.85h7.44l-0.4,3.38h-3.04l-0.39,3.23h2.69l-0.38,3.21h-2.69 L36,26.76h-4.41L33.62,9.85L33.62,9.85z M49.86,9.85l0.49,16.92h-4.49l0.12-3.04h-1.59l-0.6,3.04h-4.55l4.26-16.92H49.86 L49.86,9.85z M46.22,20.73c0.02-1.92,0.08-4.29,0.19-7.13c-0.82,3.25-1.38,5.62-1.68,7.13H46.22L46.22,20.73z M62.38,14.98H58.3 l0.15-1.25c0.07-0.58,0.06-0.96-0.02-1.12c-0.08-0.16-0.25-0.24-0.49-0.24c-0.26,0-0.48,0.11-0.64,0.32 c-0.16,0.21-0.27,0.54-0.32,0.98c-0.07,0.56-0.04,0.99,0.08,1.27c0.12,0.28,0.49,0.63,1.12,1.03c1.81,1.17,2.93,2.12,3.34,2.87 c0.42,0.75,0.53,1.95,0.33,3.6c-0.14,1.21-0.39,2.09-0.74,2.67c-0.35,0.57-0.95,1.05-1.8,1.43c-0.85,0.39-1.81,0.58-2.89,0.58 c-1.18,0-2.15-0.22-2.93-0.67c-0.78-0.45-1.25-1.01-1.43-1.7c-0.17-0.69-0.18-1.67-0.03-2.94l0.13-1.11h4.08L56,22.77 c-0.08,0.63-0.07,1.04,0.02,1.22c0.09,0.18,0.28,0.27,0.58,0.27c0.29,0,0.52-0.11,0.69-0.35c0.17-0.23,0.28-0.57,0.34-1.02 c0.12-0.99,0.06-1.65-0.17-1.95c-0.24-0.31-0.87-0.82-1.87-1.54c-1-0.72-1.66-1.25-1.98-1.58c-0.31-0.33-0.56-0.78-0.72-1.36 c-0.16-0.58-0.19-1.32-0.08-2.21c0.15-1.29,0.43-2.24,0.84-2.84c0.4-0.6,0.99-1.07,1.77-1.4c0.78-0.34,1.69-0.51,2.73-0.51 c1.14,0,2.09,0.19,2.85,0.55c0.76,0.37,1.23,0.83,1.43,1.4c0.19,0.56,0.21,1.51,0.05,2.85L62.38,14.98L62.38,14.98z M74.17,9.85 l-0.4,3.38h-2.59l-1.62,13.54h-4.41l1.62-13.54h-2.61l0.4-3.38H74.17L74.17,9.85z"/></g></svg>