<svg width="750" height="750" viewBox="0 0 750 750" fill="none" xmlns="http://www.w3.org/2000/svg">
<g clip-path="url(#clip0_317_28)">
<path d="M110.111 25.7188H147.318L202.104 182.311L256.889 25.7188H294.096L217.045 239H187.162L110.111 25.7188ZM90.043 25.7188H127.104L133.842 178.355V239H90.043V25.7188ZM277.104 25.7188H314.311V239H270.365V178.355L277.104 25.7188ZM399.564 25.7188V239H355.766V25.7188H399.564ZM479.545 25.7188L519.682 100.133L559.818 25.7188H610.062L548.1 131.48L611.674 239H560.99L519.682 163.121L478.373 239H427.396L491.117 131.48L429.008 25.7188H479.545Z" fill="white"/>
</g>
<defs>
<clipPath id="clip0_317_28">
<rect width="750" height="750" fill="white"/>
</clipPath>
</defs>
</svg>
