<svg width="750" height="750" viewBox="0 0 750 750" fill="none" xmlns="http://www.w3.org/2000/svg">
<g clip-path="url(#clip0_303_251)">
<path fill-rule="evenodd" clip-rule="evenodd" d="M750 55H0V555H750V55ZM720 85H30V525H720V85Z" fill="white"/>
<rect x="260" y="530" width="230" height="40" rx="20" fill="white"/>
<rect x="355" y="558" width="40" height="128" fill="white"/>
<rect x="50" y="651" width="650" height="40" rx="5" fill="white"/>
<mask id="mask0_303_251" style="mask-type:luminance" maskUnits="userSpaceOnUse" x="75" y="-9" width="559" height="628">
<path d="M634 -9H75V618.28H634V-9Z" fill="white"/>
</mask>
<g mask="url(#mask0_303_251)">
<path d="M168.12 209.85H201.12L282.49 341.27H283.05V209.85H312.69V388.25H279.7L198.6 257.1H197.76V388.25H168.12V209.85Z" fill="white"/>
</g>
<mask id="mask1_303_251" style="mask-type:luminance" maskUnits="userSpaceOnUse" x="75" y="-9" width="559" height="628">
<path d="M634 -9H75V618.28H634V-9Z" fill="white"/>
</mask>
<g mask="url(#mask1_303_251)">
<path d="M365.27 362.81H396.03C408.05 362.81 418.12 361.13 425.95 358.06C433.78 354.7 439.65 350.23 444.13 344.64C448.6 338.77 451.4 332.06 453.08 324.51C454.76 316.68 455.32 308.29 455.32 299.34C455.32 290.39 454.48 282 453.08 274.17C451.4 266.34 448.61 259.63 444.13 254.04C439.66 248.17 433.5 243.69 425.95 240.62C418.12 237.26 408.33 235.87 396.03 235.87H365.27V362.81ZM334.23 209.85H408.05C421.75 209.85 433.5 212.09 443.56 216.84C453.63 221.59 461.74 227.75 468.17 235.86C474.6 243.97 479.08 253.48 482.15 264.1C485.23 275.01 486.9 286.47 486.9 298.78C486.9 311.08 485.22 322.55 482.15 333.46C479.07 344.37 474.32 353.87 468.17 361.7C461.74 369.81 453.63 376.24 443.56 380.72C433.49 385.47 421.75 387.71 408.05 387.71H334.23V209.85Z" fill="white"/>
</g>
<mask id="mask2_303_251" style="mask-type:luminance" maskUnits="userSpaceOnUse" x="75" y="-9" width="559" height="628">
<path d="M634 -9H75V618.28H634V-9Z" fill="white"/>
</mask>
<g mask="url(#mask2_303_251)">
<path d="M502.57 209.85H533.61V388.25H502.29V209.85H502.57Z" fill="white"/>
</g>
<mask id="mask3_303_251" style="mask-type:luminance" maskUnits="userSpaceOnUse" x="75" y="-9" width="559" height="628">
<path d="M634 -9H75V618.28H634V-9Z" fill="white"/>
</mask>
<g mask="url(#mask3_303_251)">
<path d="M551.23 221.59C551.79 221.59 552.35 221.59 552.63 221.59C553.19 221.59 553.47 221.59 553.75 221.31C554.03 221.03 554.31 221.03 554.59 220.47C554.87 220.19 554.87 219.63 554.87 219.07C554.87 218.51 554.87 218.23 554.59 217.95C554.31 217.67 554.03 217.39 553.75 217.39C553.47 217.11 553.19 217.11 552.63 217.11C552.35 217.11 551.79 217.11 551.51 217.11H548.43V221.86H551.23V221.59ZM552.06 215.16C553.74 215.16 555.14 215.44 555.97 216.28C556.81 216.84 557.09 217.96 557.09 219.36C557.09 220.76 556.81 221.6 555.97 222.16C555.13 222.72 554.29 223.28 553.17 223.28L557.36 229.71H554.84L550.93 223.28H548.41V229.71H546.17V215.16H552.06ZM541.72 226.62C542.28 228.02 542.84 229.14 543.96 229.98C544.8 230.82 545.92 231.66 547.32 232.22C548.72 232.78 549.84 233.06 551.51 233.06C552.91 233.06 554.31 232.78 555.7 232.22C556.82 231.66 557.94 230.82 559.06 229.98C559.9 229.14 560.74 227.74 561.3 226.62C561.86 225.22 562.14 223.82 562.14 222.43C562.14 221.04 561.86 219.63 561.3 218.24C560.74 216.85 560.18 215.72 559.06 214.88C558.22 214.04 557.1 213.2 555.7 212.64C554.58 212.08 553.18 211.8 551.51 211.8C550.11 211.8 548.71 212.08 547.32 212.64C545.92 213.2 545.08 214.04 543.96 214.88C543.12 215.72 542.28 216.84 541.72 218.24C541.16 219.64 540.88 221.04 540.88 222.43C541.16 223.83 541.44 225.23 541.72 226.62ZM539.76 217.4C540.32 216 541.44 214.6 542.56 213.49C543.68 212.37 545.08 211.53 546.47 210.97C547.87 210.41 549.55 210.13 551.22 210.13C552.9 210.13 554.58 210.41 555.97 210.97C557.37 211.53 558.77 212.37 559.89 213.49C561.01 214.61 561.85 216.01 562.69 217.4C563.25 218.8 563.81 220.48 563.81 222.43C563.81 224.11 563.53 225.79 562.69 227.46C562.13 228.86 561.01 230.26 559.89 231.37C558.77 232.49 557.37 233.33 555.97 233.89C554.57 234.45 552.89 234.73 551.22 234.73C549.54 234.73 547.86 234.45 546.47 233.89C545.07 233.33 543.67 232.49 542.56 231.37C541.44 230.25 540.6 228.85 539.76 227.46C539.2 226.06 538.64 224.38 538.64 222.43C538.64 220.47 539.2 218.79 539.76 217.4Z" fill="white"/>
</g>
</g>
<defs>
<clipPath id="clip0_303_251">
<rect width="750" height="750" fill="white"/>
</clipPath>
</defs>
</svg>
