<svg width="750" height="750" viewBox="0 0 750 750" fill="none" xmlns="http://www.w3.org/2000/svg">
<path fill-rule="evenodd" clip-rule="evenodd" d="M725 55H25V555H725V55ZM55 85H695V525H55V85ZM100 198C100 195.239 102.239 193 105 193H645C647.761 193 650 195.239 650 198V208C650 210.761 647.761 213 645 213H105C102.239 213 100 210.761 100 208V198ZM105 285C102.239 285 100 287.239 100 290V300C100 302.761 102.239 305 105 305H645C647.761 305 650 302.761 650 300V290C650 287.239 647.761 285 645 285H105ZM100 382C100 379.239 102.239 377 105 377H645C647.761 377 650 379.239 650 382V392C650 394.761 647.761 397 645 397H105C102.239 397 100 394.761 100 392V382Z" fill="white"/>
<rect x="260" y="530" width="230" height="40" rx="20" fill="white"/>
<rect x="355" y="558" width="40" height="128" fill="white"/>
<rect x="50" y="651" width="650" height="40" rx="5" fill="white"/>
<rect y="15" width="750" height="58" rx="5" fill="white"/>
</svg>
