<svg width="750" height="750" viewBox="0 0 750 750" fill="none" xmlns="http://www.w3.org/2000/svg">
<path fill-rule="evenodd" clip-rule="evenodd" d="M239.56 462.546V702.545H358.132V462.844H478.789L607.422 702.545H739.737L598.164 443.413C602.423 441.694 606.575 439.862 610.618 437.915C645.135 421.082 671.236 397.325 688.92 366.643C706.818 335.749 715.767 299.314 715.767 257.339C715.767 215.578 706.925 179.037 689.24 147.716C671.768 116.182 645.881 91.679 611.577 74.2074C577.486 56.7358 535.298 48 485.014 48H239.56V365.546H159.5V282.843L11 414.046L159.5 545.249V462.546H239.56ZM358.132 364.406H467.436C496.84 364.406 520.916 360.358 539.666 352.261C558.416 343.952 572.266 331.913 581.214 316.146C590.376 300.166 594.957 280.564 594.957 257.339C594.957 234.115 590.376 214.3 581.214 197.893C572.053 181.274 558.097 168.703 539.347 160.18C520.597 151.445 496.413 147.077 466.797 147.077H358.132V364.406Z" fill="white"/>
</svg>
