<svg width="638" height="638" viewBox="0 0 638 638" fill="none" xmlns="http://www.w3.org/2000/svg">
<g clip-path="url(#clip0_308_45)">
<path d="M299.561 0.299932C298.315 0.399619 294.427 0.748525 290.838 1.04759C283.711 1.64571 271.399 3.48993 265.767 4.73603L262.178 5.58337V31.9507V58.3679L255.25 68.6856C247.375 80.349 241.692 87.4268 236.758 91.6635C228.085 99.1401 220.359 102.878 208.347 105.47C205.007 106.218 201.917 106.367 193.892 106.367C183.126 106.367 177.045 105.719 166.977 103.427L161.843 102.28L143.6 84.0374L125.307 65.7448L118.379 71.3273C97.9928 87.6262 80.4976 105.67 65.0461 126.255L62.1551 130.143L79.8497 147.937L97.594 165.731L99.5878 170.965C104.522 183.825 106.416 192.846 106.416 203.613C106.416 211.189 105.968 214.279 104.074 220.51C99.2389 236.21 84.4851 250.815 60.6598 263.425L55.4761 266.167H30.0558C8.27404 266.167 4.53576 266.266 4.33639 266.864C3.83795 268.16 1.59498 283.612 0.897169 290.341C0.498419 294.428 0.249201 303.599 0.299044 315.013C0.299044 333.605 0.797482 342.577 2.99061 362.564C3.53889 367.499 3.98748 371.686 3.98748 371.935C3.98748 372.134 15.302 372.334 29.1087 372.334H54.1801L58.367 374.028C79.1519 382.452 91.3137 392.67 98.242 407.523C105.27 422.427 105.22 444.009 98.1423 468.233L97.0956 471.772L79.3512 489.566L61.6069 507.36L62.9526 509.354C65.1956 512.744 73.8684 523.36 80.398 530.637C92.9087 544.693 106.167 557.404 118.827 567.522L125.307 572.755L143.799 554.263L162.291 535.821L166.229 535.323C173.307 534.475 191.699 534.176 198.378 534.775C220.01 536.768 235.312 543.946 247.674 557.902C251.412 562.189 257.293 570.911 260.135 576.494L262.178 580.531V606.699V632.867L267.312 633.665C274.49 634.811 287.549 636.356 296.072 637.104C305.492 637.951 334.202 637.901 342.676 637.104C349.504 636.406 366.003 634.163 367.498 633.714C368.295 633.465 368.345 631.77 368.345 606.898V580.382L370.638 575.646C377.666 561.192 388.881 549.478 402.239 542.799C408.071 539.859 416.744 537.117 424.42 535.771C430.052 534.775 432.594 534.625 443.609 534.575C451.285 534.575 458.662 534.824 462.301 535.273L468.282 535.921L488.07 555.858L507.908 575.846L509.752 574.4C513.989 571.26 527.496 560.145 533.079 555.26C548.132 542.052 561.639 527.547 570.711 514.737L572.406 512.345L552.618 492.557L532.83 472.769L531.135 464.295C528.194 449.691 527.646 445.155 527.646 435.137C527.596 428.009 527.845 424.969 528.543 421.679C530.936 410.713 535.322 402.39 543.048 394.315C550.125 386.888 557.652 381.605 569.614 375.623L576.194 372.334H604.854H633.514L633.763 371.187C634.112 369.443 635.458 358.826 636.255 350.901C638.847 325.231 638.399 297.319 634.96 274.69C634.411 270.952 633.863 267.512 633.713 267.014C633.464 266.216 631.62 266.167 604.355 266.167H575.247L568.867 262.977C541.951 249.469 529.789 232.622 528.095 206.354C527.596 198.628 529.191 182.18 531.833 168.473L532.331 165.731L552.518 145.545L572.705 125.358L569.515 120.722C559.297 105.62 544.244 90.1184 526.051 76.0126C516.979 68.8849 507.509 62.156 507.011 62.4052C506.761 62.4551 497.839 71.0781 487.272 81.4954C473.366 95.1526 467.485 100.635 466.139 101.084C465.142 101.483 461.154 102.43 457.316 103.227C420.083 110.953 392.22 98.2928 371.336 64.0501L368.345 59.1156V31.552C368.345 8.87306 368.246 3.98837 367.697 3.98837C367.299 3.98837 363.012 3.53978 358.077 2.99149C339.934 0.997744 331.361 0.449463 316.757 0.299932C308.533 0.200244 300.807 0.200244 299.561 0.299932ZM335.698 209.644C347.76 211.089 359.722 214.728 371.585 220.559C384.146 226.74 393.516 233.519 403.286 243.537C417.79 258.491 427.958 277.381 432.644 298.116C435.884 312.521 435.983 331.91 432.843 346.166C423.821 386.888 394.762 419.087 355.685 431.598C343.673 435.436 334.501 436.832 321.243 436.832C302.701 436.832 287.897 433.442 271.399 425.417C254.851 417.392 240.695 405.829 230.228 391.773C224.596 384.197 222.303 380.458 218.316 372.234C212.484 360.321 208.696 346.963 207.3 333.505C206.503 325.879 207.001 312.023 208.297 304.297C214.428 268.061 236.309 238.055 268.807 221.307C289.742 210.491 311.474 206.703 335.698 209.644Z" fill="white"/>
</g>
<defs>
<clipPath id="clip0_308_45">
<rect width="638" height="638" fill="white"/>
</clipPath>
</defs>
</svg>
