<svg width="750" height="750" viewBox="0 0 750 750" fill="none" xmlns="http://www.w3.org/2000/svg">
<g clip-path="url(#clip0_308_10)">
<path fill-rule="evenodd" clip-rule="evenodd" d="M750 55H0V555H750V55ZM720 85H30V525H720V85Z" fill="white"/>
<rect x="260" y="530" width="230" height="40" rx="20" fill="white"/>
<rect x="355" y="558" width="40" height="128" fill="white"/>
<rect x="50" y="651" width="650" height="40" rx="5" fill="white"/>
<path d="M82.5 127.999C174 188 377.65 68.4788 370.303 145.878C361.047 243.377 118.103 204.418 108 300.499C97.8974 396.581 409 258.999 402.5 367.999" stroke="#71389C" stroke-width="33"/>
<path d="M688.474 464.85C688.475 464.852 688.473 464.849 688.468 464.841C688.447 464.806 688.372 464.681 688.206 464.424C688.016 464.132 687.757 463.742 687.427 463.255C686.77 462.281 685.862 460.961 684.734 459.339C682.48 456.097 679.374 451.682 675.697 446.487C668.344 436.099 658.725 422.616 649.115 409.209C639.505 395.803 629.907 382.478 622.595 372.408C618.938 367.371 615.857 363.155 613.635 360.152C612.522 358.649 611.633 357.46 610.997 356.629C610.677 356.211 610.434 355.9 610.265 355.69C610.231 355.648 610.203 355.614 610.18 355.585C606.893 352.877 603.759 351.45 599.445 350.737C595.825 350.139 593.918 350.206 590.86 350.953L590.844 350.957L590.829 350.96C589.119 351.362 588.109 351.69 587.141 352.156C586.134 352.641 585.036 353.34 583.211 354.647C581.546 355.841 580.858 356.36 580.346 356.843C579.883 357.281 579.508 357.743 578.594 358.978C575.576 363.132 574.079 367.989 574.31 372.907L574.31 372.916L574.311 372.925C574.366 374.248 574.6 375.842 574.95 377.329C575.312 378.871 575.731 380.007 576.034 380.547L576.038 380.554L576.042 380.562C576.261 380.958 576.454 381.319 576.603 381.623C576.677 381.774 576.757 381.946 576.83 382.123C576.874 382.233 577.025 382.598 577.099 383.051L577.1 383.058C577.127 383.22 577.241 383.915 576.975 384.737C576.817 385.224 576.478 385.898 575.78 386.438C575.06 386.995 574.268 387.171 573.642 387.173C572.614 387.178 571.897 386.727 571.766 386.647C571.513 386.493 571.326 386.336 571.231 386.253C570.895 385.96 570.589 385.592 570.409 385.372C569.555 384.327 567.904 382.043 565.491 378.597L565.486 378.59L565.481 378.583C562.213 373.866 559.719 370.604 558.651 369.426C553.956 364.341 548.149 361.899 541.581 362.126C531.411 362.491 522.685 370.101 520.939 380.105C520.155 384.636 520.725 388.719 523.105 394.095C523.171 394.242 523.28 394.494 523.364 394.771C523.397 394.879 523.5 395.221 523.527 395.658C523.54 395.867 523.553 396.344 523.38 396.914C523.189 397.537 522.687 398.504 521.546 399.056C520.485 399.568 519.52 399.401 519.071 399.277C518.606 399.148 518.273 398.952 518.118 398.854C517.797 398.652 517.571 398.438 517.487 398.356C517.283 398.16 517.105 397.949 516.987 397.807C516.504 397.222 515.688 396.106 514.534 394.495C512.881 392.187 511.798 390.822 510.793 389.797C509.835 388.819 508.872 388.074 507.378 387.109C504.855 385.504 502.697 384.681 499.271 384.096L499.27 384.096C492.936 383.012 486.933 384.555 482.156 388.422C477.573 392.164 475.038 396.653 474.222 402.506C473.629 406.775 474.217 410.731 476.236 415.334C476.271 415.413 476.376 415.654 476.451 415.971C476.485 416.117 476.571 416.509 476.538 417.015C476.508 417.459 476.325 418.766 475.047 419.658C473.78 420.543 472.5 420.274 472.086 420.157C471.605 420.021 471.269 419.813 471.143 419.732C470.861 419.552 470.666 419.368 470.611 419.316C470.373 419.094 470.159 418.829 470.077 418.729C469.821 418.416 469.451 417.935 468.99 417.324C468.054 416.083 466.624 414.145 464.724 411.542C460.92 406.331 455.191 398.401 447.665 387.922L447.664 387.921L447.664 387.92C436.293 372.075 430.546 364.068 427.386 359.8C424.342 355.689 423.867 355.288 423.233 354.751C423.209 354.73 423.184 354.71 423.159 354.689L423.154 354.684L423.148 354.679C417.334 349.7 408.941 348.17 401.628 350.796L401.62 350.799L401.613 350.802C400.759 351.104 399.138 351.957 397.389 353.069C395.631 354.187 394.211 355.271 393.631 355.871L393.627 355.875C388.519 361.144 386.361 368.934 388.029 376.124C388.15 376.643 388.222 377.002 388.278 377.278C388.401 377.883 388.442 378.09 388.73 378.706C389.219 379.751 390.294 381.549 393.037 385.569C397.842 392.608 407.327 405.845 426.465 432.55C428.936 435.998 431.568 439.671 434.372 443.585L478.807 505.604L474.443 510.796L471.432 509.345C471.429 509.343 471.426 509.342 471.423 509.341C460.54 504.175 448.356 503.458 437.461 507.292C428.797 510.352 421.097 516.253 418.119 521.452C414.44 527.898 414.237 535.835 417.561 542.467C418.028 543.375 418.944 544.743 420.021 546.116C421.112 547.509 422.143 548.62 422.76 549.129C428.042 553.409 434.433 555.044 441.064 553.87C441.066 553.869 441.068 553.869 441.071 553.868L443.575 553.414L444.479 553.251L445.346 553.552L462.024 559.336L462.029 559.338L478.731 565.104L479.785 565.468L480.434 566.374L485.466 573.397C491.574 581.922 494.989 585.881 501.499 591.926L501.504 591.931C515.838 605.298 534.137 615.161 553.217 619.75L553.225 619.752C558.066 620.93 567.307 622.37 572.301 622.713L572.314 622.714L576.773 623.036L577.516 623.09L578.172 623.441L594.558 632.209L594.563 632.211L610.924 640.997L611.64 641.381L612.113 642.042L619.608 652.502L625.082 660.142L678.124 622.139L731.166 584.135L725.851 576.718L718.499 566.456L718.182 566.013L718.014 565.496L710.262 541.569C710.261 541.567 710.261 541.565 710.26 541.564C707.079 531.809 704.176 522.864 702.732 518.416C702.235 516.883 701.911 515.884 701.808 515.57C701.311 514.079 700.918 511.866 700.901 510.362C700.863 507.378 700.316 501.481 699.71 497.594C697.848 485.918 694.562 476.242 688.474 464.85ZM688.474 464.85C688.474 464.85 688.474 464.85 688.474 464.849L691.553 463.2L688.472 464.846C688.473 464.848 688.473 464.849 688.474 464.85Z" fill="black" fill-opacity="0.85" stroke="white" stroke-width="7"/>
</g>
<defs>
<clipPath id="clip0_308_10">
<rect width="750" height="750" fill="white"/>
</clipPath>
</defs>
</svg>
