<svg width="750" height="750" viewBox="0 0 750 750" fill="none" xmlns="http://www.w3.org/2000/svg">
<path d="M91.3974 0.679604C90.0002 1.14863 87.9678 1.91079 86.888 2.43843C84.157 3.72824 77.0436 10.8808 70.6288 18.7956C35.5699 61.711 11.6257 118.58 3.17856 178.732C0.701568 196.261 0.00293039 207.635 0.00293039 229.738C-0.0605821 254.42 0.892105 267.201 4.44881 289.245C13.2135 344.472 36.3321 398.058 69.041 439.039C75.5828 447.246 82.5057 454.516 85.4273 456.334C95.9068 462.724 109.562 459.441 115.024 449.123C116.548 446.308 116.802 445.077 116.739 441.091C116.739 435.286 115.342 432.531 109.054 425.789C97.2406 413.125 83.2678 392.605 73.4869 373.551C69.1681 365.109 69.9302 367.044 59.3236 337.847C54.4967 324.539 49.7967 310.703 48.9076 307.068C42.1752 279.278 39.1266 247.209 40.3334 217.016C41.159 195.617 43.1914 179.259 47.5738 158.681C49.5427 149.594 51.321 143.966 59.3871 121.57C67.7073 98.5878 69.6762 93.7803 74.6301 84.3413C84.03 66.4598 94.6366 50.4545 104.735 38.9635C114.008 28.3519 115.151 26.8275 116.167 23.8375C118.835 15.3951 114.897 6.65963 106.45 2.37981C101.75 0.0347002 95.7798 -0.668832 91.3974 0.679604Z" fill="white"/>
<path d="M648.402 0.445619C637.288 3.14249 630.619 13.6368 633.731 23.4863C634.747 26.8281 635.763 28.1765 645.227 38.964C655.325 50.455 665.932 66.4604 675.332 84.3418C680.286 93.7809 682.255 98.5883 690.575 121.57C700.864 150.122 702.833 157.45 706.199 179.494C711.724 216.195 711.089 255.535 704.23 291.884C701.372 307.186 699.53 313.4 690.638 337.848C680.032 367.044 680.794 365.11 676.475 373.552C666.694 392.665 652.658 413.184 640.844 425.848C634.874 432.238 633.159 435.697 633.223 441.384C633.286 451.41 640.844 458.797 651.705 459.442C659.835 459.911 664.344 457.741 671.775 449.651C694.068 425.555 714.836 390.495 728.238 354.322C739.543 324.012 745.64 296.515 749.197 260.225C750.404 247.327 750.213 210.509 748.879 196.614C743.862 146.311 730.905 102.985 708.993 63.2358C693.115 34.3324 671.584 6.42564 661.804 1.96994C658.247 0.386992 651.769 -0.375168 648.402 0.445619Z" fill="white"/>
<path d="M188.317 70.8571C184.38 71.6192 180.696 73.8471 176.695 77.8338C172.185 82.2895 165.326 90.7905 160.499 97.8258C111.594 169.293 107.911 271.364 151.544 347.58C159.102 360.771 170.47 376.19 177.711 382.991C182.601 387.622 186.031 388.912 193.017 388.912C199.305 388.853 201.083 388.267 205.847 384.691C208.832 382.522 212.071 376.952 212.706 372.965C213.659 367.22 211.436 362.588 203.179 353.208C184.761 332.219 169.962 298.86 164.5 265.911C160.054 239.294 160.69 209.394 166.342 184.067C173.202 152.994 186.857 124.912 205.402 103.923C211.245 97.2395 212.706 94.1322 212.643 88.4454C212.516 83.5793 210.928 80.0616 206.99 76.1922C202.417 71.6779 195.113 69.5673 188.317 70.8571Z" fill="white"/>
<path d="M552.181 71.0334C543.543 73.2613 537.509 80.3552 537.382 88.4458C537.255 94.1327 538.716 97.24 544.686 103.982C566.408 128.606 580.889 161.965 586.605 200.425C588.574 213.557 588.701 244.689 586.922 257.587C581.524 296.105 566.916 330.285 545.258 355.026C538.716 362.53 537.382 365.286 537.382 370.855C537.382 386.157 556.373 394.658 569.647 385.336C574.283 382.053 584.509 369.565 592.321 357.547C631.635 297.219 639.955 214.847 613.788 145.022C609.787 134.351 606.357 126.788 600.831 116.587C589.272 95.2466 574.029 75.8995 565.9 72.3819C561.835 70.623 556.055 70.0367 552.181 71.0334Z" fill="white"/>
<path d="M274.25 141.21C267.327 142.5 262.5 146.37 254.879 156.747C244.526 170.817 236.841 189.754 233.602 209.512C231.951 219.244 231.951 240.643 233.539 250.258C237.159 271.774 244.971 290.3 256.848 305.661C263.897 314.69 268.851 318.031 276.219 318.676C290.763 319.907 302.196 305.895 296.606 293.584C296.098 292.47 293.685 289.069 291.208 286.021C286.063 279.747 279.966 268.784 277.553 261.573C270.058 239.236 270.947 212.853 279.903 192.51C283.269 184.829 286.444 179.611 291.843 172.928C298.385 164.837 299.592 158.974 296.289 152.056C293.812 146.956 287.778 142.266 282.57 141.503C277.616 140.8 276.854 140.741 274.25 141.21Z" fill="white"/>
<path d="M466.757 141.21C462.184 141.855 459.262 143.145 455.705 146.194C451.323 150.005 449.608 153.757 449.672 159.678C449.672 163.606 449.989 164.896 451.387 167.417C452.339 169.117 453.927 171.345 454.88 172.4C462.247 180.256 468.852 193.272 472.028 205.994C474.251 215.023 474.886 221.941 474.505 233.725C474.124 245.744 473.044 251.724 469.615 261.632C465.994 272.067 463.517 276.23 452.784 290.301C446.941 297.864 448.846 308.827 457.039 314.807C462.882 319.087 470.631 319.908 477.744 317.093C485.112 314.162 496.163 300.033 503.594 283.969C522.457 243.164 518.011 191.923 492.543 156.981C486.191 148.187 482.952 145.08 478.316 143.028C473.806 141.035 471.266 140.683 466.757 141.21Z" fill="white"/>
<path d="M368.376 168.179C340.366 171.404 318.328 190.165 312.612 215.668C310.77 223.7 311.278 236.012 313.628 243.516C321.313 267.495 342.653 283.969 369.519 286.666C381.332 287.897 393.336 285.845 404.514 280.744C421.472 273.064 433.476 259.404 438.62 242.05C439.891 237.77 440.081 235.66 440.081 227.393C440.081 219.127 439.891 217.016 438.62 212.736C432.968 193.682 418.423 178.615 398.862 171.697C390.033 168.531 377.648 167.124 368.376 168.179Z" fill="white"/>
<path d="M363.866 329.757C348.623 332.806 335.794 343.652 326.394 361.416C322.202 369.272 318.899 377.773 314.58 391.785C312.485 398.586 308.293 411.66 305.308 420.864C300.227 436.752 296.924 446.954 286.698 478.613C275.584 513.027 273.107 520.707 268.026 536.361C265.104 545.565 257.038 570.482 250.179 591.764C243.319 613.046 235.317 637.845 232.395 646.874C215.056 700.46 211.119 712.83 211.119 713.475C211.119 714.999 216.327 720.452 220.391 723.266C240.017 736.809 278.061 745.427 334.968 749.296C349.258 750.235 397.147 750.235 411.501 749.296C474.568 745.017 514.708 734.757 530.777 718.751C533.508 715.996 534.397 714.706 534.397 713.358C534.397 712.361 514.2 648.75 489.557 571.948C464.915 495.146 443.892 429.776 442.939 426.727C441.987 423.678 439.7 416.526 437.858 410.898C436.016 405.269 433.412 397.12 432.079 392.782C423.25 365.109 415.375 350.628 403.625 340.427C394.987 332.864 386.413 329.464 375.044 329.053C370.471 328.936 366.915 329.112 363.866 329.757Z" fill="white"/>
</svg>
