<svg width="750" height="750" viewBox="0 0 750 750" fill="none" xmlns="http://www.w3.org/2000/svg">
<g clip-path="url(#clip0_307_127)">
<path fill-rule="evenodd" clip-rule="evenodd" d="M750 0H0V750H750V0ZM30 30H720V720H30V30ZM462 218C462 266.049 423.049 305 375 305C326.951 305 288 266.049 288 218C288 169.951 326.951 131 375 131C423.049 131 462 169.951 462 218Z" fill="white"/>
<rect x="77" y="488" width="596" height="240" rx="2" fill="white"/>
<ellipse cx="374.5" cy="474.5" rx="128.5" ry="169.5" fill="white"/>
<path d="M221.032 80.7344C220.22 80.5458 213.525 80.018 206.196 79.5578C198.852 79.1217 189.321 78.5282 185.038 78.237C175.033 77.5737 173.083 77.9533 169.838 81.1914C167.592 83.3881 167.498 83.9509 166.635 100.416C165.17 127.897 162.933 183.074 163.175 184.864C163.54 187.152 164.677 189.532 166.301 191.331C168.587 193.81 168.7 193.849 186.467 194.946C195.21 195.472 204.91 196.072 208.052 196.305C215.895 196.827 218.51 196.123 221.81 192.539C224.374 189.754 224.507 189.079 225.013 176.576C227.306 118.105 228.341 89.7503 228.206 88.5862C227.828 85.3186 224.37 81.5125 221.032 80.7344Z" fill="white"/>
<path d="M155.928 81.734C140.53 77.4982 125.772 81.5578 112.315 93.7736C90.6823 113.386 73.1253 154.348 64.1118 206.222C55.0097 258.686 55.7602 314.243 66.1861 359.111C75.1294 397.511 89.5612 424.466 110.187 441.322C113.056 443.683 122.477 449.43 125.626 450.774C131.514 453.246 137.096 454.887 142.99 455.904C145.644 456.335 148.513 456.694 148.96 456.628C149.144 456.604 150.491 405.618 150.418 400.009C150.356 394.271 150.33 382.856 150.376 365.038C150.381 355.575 150.791 356.571 146.434 355.203C142.802 354.039 136.179 350.101 132.883 347.106C125.618 340.605 119.088 330.176 114.808 318.337C113.046 313.495 110.467 303.373 109.515 297.703C108.083 289.093 107.331 279.203 107.434 269.8C107.501 264.073 107.773 260.846 108.681 255.632C110.952 242.564 114.308 231.278 119.096 220.593C121.464 215.32 126.672 206.894 130.11 202.816C136.745 194.887 144.27 189.502 152.856 186.495C154.141 186.058 155.168 185.598 155.179 185.469C155.174 185.365 155.227 182.275 155.288 178.615C155.448 169.009 156.093 154.27 157.39 129.785C159.01 99.7636 159.62 82.9681 159.135 82.7062C159.012 82.6308 157.554 82.183 155.928 81.734Z" fill="white"/>
<path d="M211.907 349.378C211.317 349.289 204.086 349.018 195.797 348.813C187.532 348.623 178.002 348.34 174.62 348.211C167.995 348.003 165.444 348.347 163.218 349.772C160.373 351.599 158.788 354.364 158.67 357.617C157.24 398.95 156.037 455.317 156.537 457.557C156.711 458.273 157.322 459.663 157.955 460.627C158.977 462.234 159.278 462.519 161.429 463.831L163.803 465.28L169.122 465.403C172.052 465.494 181.96 465.77 191.128 466.036C200.311 466.277 208.298 466.365 208.92 466.236C210.507 465.915 212.232 465.033 213.757 463.758C215.251 462.532 217.401 459.229 217.746 457.607C217.884 457.047 218.064 451.525 218.169 445.346C218.249 439.152 218.581 422.255 218.866 407.772C219.614 370.059 219.771 358.789 219.589 357.253C219.491 356.413 218.983 355.187 218.271 354.074C217.284 352.522 216.84 352.082 215.04 350.916C213.76 350.067 212.572 349.512 211.907 349.378Z" fill="white"/>
</g>
<defs>
<clipPath id="clip0_307_127">
<rect width="750" height="750" fill="white"/>
</clipPath>
</defs>
</svg>
