<svg width="750" height="750" viewBox="0 0 750 750" fill="none" xmlns="http://www.w3.org/2000/svg">
<path fill-rule="evenodd" clip-rule="evenodd" d="M750 0H0V750H750V0ZM126 656H66V716H126V656ZM159 656H219V716H159V656ZM312 656H252V716H312V656ZM345 656H405V716H345V656ZM498 656H438V716H498V656ZM531 656H591V716H531V656ZM684 656H624V716H684V656ZM66 34H126V94H66V34ZM219 34H159V94H219V34ZM252 34H312V94H252V34ZM405 34H345V94H405V34ZM438 34H498V94H438V34ZM591 34H531V94H591V34ZM624 34H684V94H624V34ZM66 118H684V633H66V118ZM598 375.5L232.75 152.498V598.502L598 375.5Z" fill="white"/>
</svg>
