<svg width="750" height="750" viewBox="0 0 750 750" fill="none" xmlns="http://www.w3.org/2000/svg">
<path fill-rule="evenodd" clip-rule="evenodd" d="M750 55H0V555H750V55ZM720 85H30V525H720V85Z" fill="white"/>
<rect x="260" y="530" width="230" height="40" rx="20" fill="white"/>
<rect x="355" y="558" width="40" height="128" fill="white"/>
<rect x="50" y="651" width="650" height="40" rx="5" fill="white"/>
<path d="M216 139.754C216 123.185 229.431 109.754 246 109.754H426.006C442.574 109.754 456.006 123.185 456.006 139.754V306.033C456.006 322.601 442.574 336.032 426.006 336.032H246C229.431 336.032 216 322.601 216 306.032V139.754Z" fill="white"/>
<path d="M426.767 246.423C413.341 234.489 413.341 213.511 426.767 201.577L498.735 137.61C518.082 120.413 548.665 134.148 548.665 160.033V287.967C548.665 313.852 518.082 327.587 498.735 310.39L426.767 246.423Z" fill="white"/>
<path d="M157.938 452L179.375 380H200.25L168.562 471H154.812L157.938 452ZM138.188 380L159.562 452L162.812 471H148.938L117.438 380H138.188ZM228.688 380V471H210V380H228.688ZM246.25 380H280.188C287.146 380 293.125 381.042 298.125 383.125C303.167 385.208 307.042 388.292 309.75 392.375C312.458 396.458 313.812 401.479 313.812 407.438C313.812 412.312 312.979 416.5 311.312 420C309.688 423.458 307.375 426.354 304.375 428.688C301.417 430.979 297.938 432.812 293.938 434.188L288 437.312H258.5L258.375 422.688H280.312C283.604 422.688 286.333 422.104 288.5 420.938C290.667 419.771 292.292 418.146 293.375 416.062C294.5 413.979 295.062 411.562 295.062 408.812C295.062 405.896 294.521 403.375 293.438 401.25C292.354 399.125 290.708 397.5 288.5 396.375C286.292 395.25 283.521 394.688 280.188 394.688H265V471H246.25V380ZM297.125 471L276.375 430.438L296.188 430.312L317.188 470.125V471H297.125ZM365.188 380V471H346.5V380H365.188ZM393.188 380V394.688H318.938V380H393.188ZM454.125 380H472.812V440.125C472.812 447.125 471.312 453.021 468.312 457.812C465.354 462.604 461.25 466.208 456 468.625C450.792 471.042 444.792 472.25 438 472.25C431.208 472.25 425.167 471.042 419.875 468.625C414.625 466.208 410.5 462.604 407.5 457.812C404.542 453.021 403.062 447.125 403.062 440.125V380H421.812V440.125C421.812 444.208 422.458 447.542 423.75 450.125C425.042 452.708 426.896 454.604 429.312 455.812C431.771 457.021 434.667 457.625 438 457.625C441.417 457.625 444.312 457.021 446.688 455.812C449.104 454.604 450.938 452.708 452.188 450.125C453.479 447.542 454.125 444.208 454.125 440.125V380ZM523.875 395.562L499.125 471H479.188L513 380H525.688L523.875 395.562ZM544.438 471L519.625 395.562L517.625 380H530.438L564.438 471H544.438ZM543.312 437.125V451.812H495.25V437.125H543.312ZM631.375 456.375V471H585.562V456.375H631.375ZM591.625 380V471H572.875V380H591.625Z" fill="white"/>
</svg>
